<svg xmlns="http://www.w3.org/2000/svg" viewBox="0 0 384.9 66.43"><defs><style>.cls-1{fill:#d05168;}</style></defs><g id="Layer_2" data-name="Layer 2"><g id="Layer_1-2" data-name="Layer 1"><path class="cls-1" d="M31,14.81H18.76a1.25,1.25,0,0,1,0-2.49H31a1.25,1.25,0,0,1,0,2.49Z" transform="translate(0 -3.57)"/><path class="cls-1" d="M25.77,21.24H1.25a1.25,1.25,0,0,1,0-2.5H25.77a1.25,1.25,0,0,1,0,2.5Z" transform="translate(0 -3.57)"/><path class="cls-1" d="M26.94,27.66H11.17a1.25,1.25,0,0,1,0-2.49H26.94a1.25,1.25,0,1,1,0,2.49Z" transform="translate(0 -3.57)"/><path class="cls-1" d="M52.21,11a15.71,15.71,0,0,0-9.93,3.81c-6.1,5.1-7.77,13.34-3.75,18.43L54.81,53.85a1.17,1.17,0,0,0,1.65,0h0L81.12,33.26c6.1-5.09,7.77-13.32,3.74-18.41s-12.24-5.09-18.34,0L63,17.79l-2.37-3A10.5,10.5,0,0,0,52.21,11Zm-.47,2.32a8.52,8.52,0,0,1,6.88,3.14l3,3.81a1.16,1.16,0,0,0,1.65,0h0l4.55-3.78c5-4.2,11.71-4.2,15,0s2,10.93-3.07,15.13L56.15,51.36,40.51,31.6c-3.32-4.21-2-10.94,3.08-15.14a12.81,12.81,0,0,1,8.15-3.14Z" transform="translate(0 -3.57)"/><path class="cls-1" d="M22.67,70a11.65,11.65,0,0,1-9.56-4.45,12.47,12.47,0,0,1-1.74-11c2.14-7.66,9.84-13.65,17.55-13.65a11.63,11.63,0,0,1,9.55,4.45,12.41,12.41,0,0,1,1.74,11C38.08,64,30.37,70,22.67,70Zm6.25-22.44c-4.71,0-9.82,4-11.14,8.79a5.84,5.84,0,0,0,.63,5.18,5.16,5.16,0,0,0,4.26,1.82c4.71,0,9.81-4,11.14-8.78a5.83,5.83,0,0,0-.63-5.18A5.15,5.15,0,0,0,28.92,47.56Z" transform="translate(0 -3.57)"/><path class="cls-1" d="M84.16,70a11.66,11.66,0,0,1-9.56-4.45,12.44,12.44,0,0,1-1.73-11C75,46.91,82.71,40.92,90.41,40.92A11.65,11.65,0,0,1,100,45.37a12.47,12.47,0,0,1,1.74,11h0C99.57,64,91.87,70,84.16,70Zm6.25-22.44c-4.71,0-9.81,4-11.14,8.79a5.84,5.84,0,0,0,.63,5.18,5.17,5.17,0,0,0,4.26,1.82c4.71,0,9.82-4,11.14-8.78h0a5.83,5.83,0,0,0-.63-5.18A5.14,5.14,0,0,0,90.41,47.56Z" transform="translate(0 -3.57)"/><path class="cls-1" d="M136.65,54.53a42.82,42.82,0,0,0,.59-6.15q.81-12.16,3-25.45a23.82,23.82,0,0,0,.56-4.26.7.7,0,0,0-.56-.77c-2.47-.63-3.71-1.72-3.71-3.25a4.42,4.42,0,0,1,1.52-3.17A4.59,4.59,0,0,1,141.3,10l4.72.14q3.21,0,8.84-.46,4.78-.42,7.79-.42,9.76,0,15.79,5.47t6,14.49q0,10.06-9.3,18.2a50.4,50.4,0,0,1-22.51,11.1,37.63,37.63,0,0,0-4.93,1.32,20.17,20.17,0,0,0-3.36,1.79,8.24,8.24,0,0,1-4.68,1.64,4.05,4.05,0,0,1-3.18-1.71,5,5,0,0,1-1.4-2.8,5.14,5.14,0,0,1,.73-2.13Zm9.12-1.75q1.86,0,10.61-2.71a32.83,32.83,0,0,0,14.21-8.33A18,18,0,0,0,176,28.91a11.37,11.37,0,0,0-4-9.18q-4-3.4-10.57-3.41a83.38,83.38,0,0,0-10.77.84c-.53.07-1,.12-1.29.14q-3.81,23.36-3.81,33A10.34,10.34,0,0,0,145.77,52.78Z" transform="translate(0 -3.57)"/><path class="cls-1" d="M223.65,42.44a28,28,0,0,1-8.89,13.79q-6.56,5.61-13.1,5.61a10.87,10.87,0,0,1-8.52-3.8,13.52,13.52,0,0,1-3.36-9.31q0-9,6.15-17.76t14.93-8.74a12.05,12.05,0,0,1,9.68,4.42,15.89,15.89,0,0,1,3.71,10.54,22.69,22.69,0,0,1-.6,5.21Zm-18.18-11a22.69,22.69,0,0,0-4.79,6.92,21.43,21.43,0,0,0-2.34,9.54,9.65,9.65,0,0,0,1.07,4.79,3.18,3.18,0,0,0,2.81,1.89q4.34,0,9-5.14a16.7,16.7,0,0,0,4.69-11.53,10.68,10.68,0,0,0-1.52-5.93,4.81,4.81,0,0,0-4.25-2.32,6.9,6.9,0,0,0-4.65,1.78Z" transform="translate(0 -3.57)"/><path class="cls-1" d="M265.7,58.48c-.56,0-1.52-.07-2.9-.21s-2.39-.17-3-.17a61.23,61.23,0,0,0-18.53,2.83A20.44,20.44,0,0,1,236,62.12a3.82,3.82,0,0,1-3.32-1.68,5.56,5.56,0,0,1-1.19-3.22,20,20,0,0,1,.63-3.21,61.4,61.4,0,0,0,1.29-7.34l3.15-29a46.51,46.51,0,0,1,.68-5.35,4,4,0,0,1,1.52-2.2,5.11,5.11,0,0,1,3.32-1A4,4,0,0,1,245,10.42a3.79,3.79,0,0,1,1.26,2.72,31.4,31.4,0,0,1-.63,4.76q-.9,4.89-2.55,18.8t-1.64,14.72c0,.68.11,1,.35,1a70.78,70.78,0,0,0,7.3-.94,50.89,50.89,0,0,1,5.67-.59,70,70,0,0,0,11.46-1.19,7.23,7.23,0,0,1,1.54-.25,4,4,0,0,1,3,1.14,3.8,3.8,0,0,1,1.08,2.71A4.46,4.46,0,0,1,270,57.06,6.82,6.82,0,0,1,265.7,58.48Z" transform="translate(0 -3.57)"/><path class="cls-1" d="M279.06,37v0q1.11-6.36,1.11-7.27a7.76,7.76,0,0,1,1.14-4.33,3.57,3.57,0,0,1,3.16-1.75,5.57,5.57,0,0,1,3.71,1.12,3.26,3.26,0,0,1,1.33,2.52,26.2,26.2,0,0,1-1.3,5.76l-.21.77a62.24,62.24,0,0,0-2.3,11c-.26,2.85-.39,5.14-.39,6.89a29.93,29.93,0,0,0,.74,5.7,6.51,6.51,0,0,1,.1,1.05c0,.53-.51,1.25-1.52,2.16A4.81,4.81,0,0,1,281.36,62q-4.61,0-4.61-7a77,77,0,0,1,1.68-14.47C278.66,39.25,278.87,38.07,279.06,37ZM295.94,8.21a5.57,5.57,0,0,1-2.24,4.36,6.55,6.55,0,0,1-3.88,1.87,5,5,0,0,1-3.72-1.75,5.22,5.22,0,0,1-1.63-3.5,5.43,5.43,0,0,1,1.61-4.07,6.36,6.36,0,0,1,4.62-1.55A5.28,5.28,0,0,1,294.49,5,4.38,4.38,0,0,1,295.94,8.21Z" transform="translate(0 -3.57)"/><path class="cls-1" d="M300.59,59.25a4.83,4.83,0,0,1-3.1-.82q-1-.82-1-4.32a20.25,20.25,0,0,1,.17-3c.12-.68.68-1.23,1.7-1.62a12.44,12.44,0,0,1,4.39-.6,4.72,4.72,0,0,1,3.25,1,2.9,2.9,0,0,1,1.11,2.18,6,6,0,0,1-.61,3,10.42,10.42,0,0,1-2.65,2.6A6.17,6.17,0,0,1,300.59,59.25Z" transform="translate(0 -3.57)"/><path class="cls-1" d="M323.69,42.82l.6-1.12a59.39,59.39,0,0,1,9.1-13.79q4.88-5.3,9.53-5.29a8.57,8.57,0,0,1,5.82,1.95A6,6,0,0,1,351,29.22a5.22,5.22,0,0,1-.77,2.89,2.4,2.4,0,0,1-2.13,1.2,5.48,5.48,0,0,1-3.95-1.78,3.5,3.5,0,0,0-2-1.15q-2.62,0-8.77,8.14A37.37,37.37,0,0,0,326,56.84a6.45,6.45,0,0,1-1.72,4.1,5.19,5.19,0,0,1-3.6,1.18q-2.41,0-3.42-2.75t-1-9q0-2.55.14-6.89c.1-2.73.36-6.06.81-10,.11-1,.19-1.83.24-2.41a26,26,0,0,1,.72-4.7A5,5,0,0,1,320,24a5.26,5.26,0,0,1,3.25-1.11A3.65,3.65,0,0,1,326.1,24a3.43,3.43,0,0,1,1,2.38,30.69,30.69,0,0,1-1.57,6.81,29.08,29.08,0,0,0-.94,4.27Z" transform="translate(0 -3.57)"/><path class="cls-1" d="M384.31,42.44a28,28,0,0,1-8.9,13.79q-6.56,5.61-13.09,5.61a10.89,10.89,0,0,1-8.53-3.8,13.52,13.52,0,0,1-3.36-9.31q0-9,6.16-17.76t14.92-8.74a12,12,0,0,1,9.68,4.42,15.89,15.89,0,0,1,3.71,10.54,23.25,23.25,0,0,1-.59,5.21Zm-18.18-11a22.51,22.51,0,0,0-4.79,6.92A21.43,21.43,0,0,0,359,47.85a9.65,9.65,0,0,0,1.06,4.79,3.18,3.18,0,0,0,2.82,1.89q4.33,0,9-5.14a16.69,16.69,0,0,0,4.68-11.53,10.68,10.68,0,0,0-1.52-5.93,4.8,4.8,0,0,0-4.25-2.32,6.93,6.93,0,0,0-4.65,1.78Z" transform="translate(0 -3.57)"/></g></g></svg>