<svg  width="100%" height="100%" viewBox="0 0 385 67" fill="none" xmlns="http://www.w3.org/2000/svg">
<g clip-path="url(#clip0)">
<path d="M31 11.24H18.76C18.4491 11.2121 18.1598 11.0689 17.9492 10.8385C17.7385 10.6081 17.6217 10.3072 17.6217 9.995C17.6217 9.68281 17.7385 9.38193 17.9492 9.15153C18.1598 8.92113 18.4491 8.77789 18.76 8.75H31C31.3109 8.77789 31.6002 8.92113 31.8108 9.15153C32.0215 9.38193 32.1383 9.68281 32.1383 9.995C32.1383 10.3072 32.0215 10.6081 31.8108 10.8385C31.6002 11.0689 31.3109 11.2121 31 11.24V11.24Z" fill="#D05168"/>
<path d="M25.77 17.67H1.25C0.918479 17.67 0.600537 17.5383 0.366117 17.3039C0.131696 17.0695 0 16.7516 0 16.42C0 16.0885 0.131696 15.7706 0.366117 15.5362C0.600537 15.3017 0.918479 15.17 1.25 15.17H25.77C26.1015 15.17 26.4195 15.3017 26.6539 15.5362C26.8883 15.7706 27.02 16.0885 27.02 16.42C27.02 16.7516 26.8883 17.0695 26.6539 17.3039C26.4195 17.5383 26.1015 17.67 25.77 17.67V17.67Z" fill="#D05168"/>
<path d="M26.94 24.09H11.17C10.8591 24.0621 10.5698 23.9189 10.3592 23.6885C10.1485 23.4581 10.0317 23.1572 10.0317 22.845C10.0317 22.5328 10.1485 22.232 10.3592 22.0016C10.5698 21.7712 10.8591 21.6279 11.17 21.6H26.94C27.1129 21.5845 27.2871 21.6052 27.4515 21.6607C27.616 21.7162 27.7671 21.8054 27.8952 21.9225C28.0233 22.0396 28.1256 22.1821 28.1956 22.341C28.2655 22.4998 28.3017 22.6715 28.3017 22.845C28.3017 23.0186 28.2655 23.1903 28.1956 23.3491C28.1256 23.5079 28.0233 23.6504 27.8952 23.7676C27.7671 23.8847 27.616 23.9738 27.4515 24.0294C27.2871 24.0849 27.1129 24.1055 26.94 24.09V24.09Z" fill="#D05168"/>
<path d="M52.21 7.43004C48.5577 7.50688 45.0464 8.85414 42.28 11.24C36.18 16.34 34.51 24.58 38.53 29.67L54.81 50.28C55.0292 50.498 55.3258 50.6204 55.635 50.6204C55.9442 50.6204 56.2408 50.498 56.46 50.28V50.28L81.12 29.69C87.22 24.6 88.89 16.37 84.86 11.28C80.83 6.19004 72.62 6.19004 66.52 11.28L63 14.22L60.63 11.22C59.6082 9.98842 58.3183 9.00668 56.859 8.34981C55.3997 7.69295 53.8095 7.37834 52.21 7.43004V7.43004ZM51.74 9.75004C53.0511 9.70847 54.3541 9.9702 55.5475 10.5148C56.7409 11.0595 57.7923 11.8723 58.62 12.89L61.62 16.7C61.7279 16.8092 61.8564 16.8958 61.998 16.955C62.1396 17.0141 62.2915 17.0446 62.445 17.0446C62.5985 17.0446 62.7504 17.0141 62.892 16.955C63.0337 16.8958 63.1621 16.8092 63.27 16.7L67.82 12.92C72.82 8.72004 79.53 8.72004 82.82 12.92C86.11 17.12 84.82 23.85 79.75 28.05L56.15 47.79L40.51 28.03C37.19 23.82 38.51 17.09 43.59 12.89C45.855 10.921 48.7394 9.80967 51.74 9.75004V9.75004Z" fill="#D05168"/>
<path d="M22.67 66.43C20.8388 66.4923 19.0188 66.1218 17.3577 65.3486C15.6966 64.5754 14.2413 63.4213 13.11 61.98C11.9874 60.4068 11.2458 58.5941 10.9438 56.6851C10.6418 54.7761 10.7877 52.823 11.37 50.98C13.51 43.32 21.21 37.33 28.92 37.33C30.7497 37.2677 32.5683 37.6383 34.2278 38.4116C35.8873 39.1848 37.3408 40.339 38.47 41.78C39.5969 43.3513 40.3411 45.1641 40.6432 47.0739C40.9453 48.9837 40.797 50.9377 40.21 52.78C38.08 60.43 30.37 66.43 22.67 66.43ZM28.92 43.99C24.21 43.99 19.1 47.99 17.78 52.78C17.4762 53.6332 17.3749 54.5453 17.4843 55.4443C17.5936 56.3433 17.9105 57.2046 18.41 57.96C18.9291 58.5744 19.5846 59.059 20.3243 59.375C21.0639 59.691 21.8672 59.8297 22.67 59.78C27.38 59.78 32.48 55.78 33.81 51C34.1146 50.147 34.2163 49.2348 34.1069 48.3356C33.9975 47.4365 33.6802 46.5752 33.18 45.82C32.6624 45.2032 32.0074 44.7163 31.2676 44.3985C30.5278 44.0807 29.7237 43.9408 28.92 43.99V43.99Z" fill="#D05168"/>
<path d="M84.16 66.43C82.3289 66.4915 80.5092 66.1206 78.8482 65.3474C77.1872 64.5743 75.7318 63.4206 74.6 61.98C73.4769 60.4069 72.7358 58.5938 72.4355 56.6844C72.1352 54.775 72.284 52.8219 72.87 50.98C75 43.34 82.71 37.35 90.41 37.35C92.2462 37.2829 94.0722 37.6511 95.7388 38.4245C97.4055 39.1979 98.8657 40.3545 100 41.8C101.123 43.3733 101.864 45.1859 102.166 47.095C102.468 49.004 102.322 50.957 101.74 52.8V52.8C99.57 60.43 91.87 66.43 84.16 66.43ZM90.41 43.99C85.7 43.99 80.6 47.99 79.27 52.78C78.9662 53.6331 78.8649 54.5453 78.9743 55.4443C79.0836 56.3433 79.4005 57.2045 79.9 57.96C80.4196 58.5738 81.0752 59.0579 81.8147 59.3738C82.5543 59.6898 83.3573 59.8288 84.16 59.78C88.87 59.78 93.98 55.78 95.3 51C95.6046 50.147 95.7062 49.2347 95.5969 48.3356C95.4875 47.4364 95.1702 46.5751 94.67 45.82C94.1529 45.2025 93.498 44.7152 92.7581 44.3974C92.0181 44.0795 91.2138 43.94 90.41 43.99V43.99Z" fill="#D05168"/>
<path d="M136.65 50.96C136.995 48.9269 137.192 46.8715 137.24 44.81C137.78 36.7033 138.78 28.22 140.24 19.36C140.555 17.9598 140.742 16.534 140.8 15.1C140.821 14.9247 140.775 14.7479 140.671 14.6051C140.567 14.4623 140.413 14.3641 140.24 14.33C137.77 13.7 136.53 12.61 136.53 11.08C136.553 10.4757 136.7 9.88264 136.961 9.33738C137.223 8.79212 137.593 8.30631 138.05 7.91C138.465 7.45867 138.967 7.09517 139.525 6.84097C140.083 6.58677 140.687 6.44703 141.3 6.43L146.02 6.57C148.16 6.57 151.107 6.41667 154.86 6.11C158.047 5.83 160.643 5.69 162.65 5.69C169.157 5.69 174.42 7.51333 178.44 11.16C182.46 14.8067 184.46 19.6367 184.44 25.65C184.44 32.3567 181.34 38.4233 175.14 43.85C168.693 49.3889 160.949 53.2073 152.63 54.95C150.959 55.2779 149.312 55.7189 147.7 56.27C146.526 56.7594 145.401 57.3587 144.34 58.06C142.985 59.0743 141.351 59.6469 139.66 59.7C139.034 59.6804 138.421 59.5157 137.869 59.219C137.317 58.9223 136.842 58.5016 136.48 57.99C135.726 57.2306 135.235 56.2491 135.08 55.19C135.163 54.4348 135.412 53.7073 135.81 53.06L136.65 50.96ZM145.77 49.21C147.01 49.21 150.547 48.3067 156.38 46.5C161.748 44.976 166.638 42.1091 170.59 38.17C172.299 36.4979 173.657 34.5021 174.586 32.2993C175.515 30.0965 175.995 27.7307 176 25.34C176.078 23.606 175.758 21.8772 175.065 20.2859C174.372 18.6947 173.323 17.2833 172 16.16C169.333 13.8933 165.81 12.7567 161.43 12.75C157.826 12.7969 154.228 13.0775 150.66 13.59C150.13 13.66 149.66 13.71 149.37 13.73C146.83 29.3033 145.56 40.3033 145.56 46.73C145.53 47.5621 145.6 48.3948 145.77 49.21V49.21Z" fill="#D05168"/>
<path d="M223.65 38.87C222.13 44.2513 219.034 49.0542 214.76 52.66C210.387 56.4 206.02 58.27 201.66 58.27C200.047 58.3087 198.445 57.9878 196.972 57.3305C195.498 56.6732 194.189 55.6961 193.14 54.47C190.883 51.903 189.683 48.5765 189.78 45.16C189.78 39.16 191.83 33.24 195.93 27.4C200.03 21.56 205.007 18.6467 210.86 18.66C212.704 18.6066 214.536 18.9773 216.214 19.7436C217.893 20.5099 219.373 21.6514 220.54 23.08C223.012 26.0283 224.33 29.7734 224.25 33.62C224.252 35.3741 224.051 37.1224 223.65 38.83V38.87ZM205.47 27.87C203.456 29.8578 201.831 32.2048 200.68 34.79C199.172 37.746 198.371 41.0117 198.34 44.33C198.278 45.9922 198.646 47.6423 199.41 49.12C199.653 49.6678 200.045 50.1358 200.542 50.4702C201.04 50.8046 201.621 50.9917 202.22 51.01C205.113 51.01 208.113 49.2967 211.22 45.87C214.211 42.7747 215.891 38.6441 215.91 34.34C215.993 32.2574 215.464 30.196 214.39 28.41C213.95 27.6821 213.325 27.0838 212.578 26.6763C211.832 26.2687 210.99 26.0664 210.14 26.09C208.422 26.084 206.764 26.7186 205.49 27.87H205.47Z" fill="#D05168"/>
<path d="M265.7 54.91C265.14 54.91 264.18 54.84 262.8 54.7C261.42 54.56 260.41 54.53 259.8 54.53C253.515 54.5167 247.265 55.4712 241.27 57.36C239.574 57.9881 237.802 58.3883 236 58.55C235.349 58.5762 234.703 58.4356 234.122 58.1415C233.541 57.8475 233.044 57.4098 232.68 56.87C231.954 55.9491 231.537 54.822 231.49 53.65C231.612 52.5646 231.823 51.491 232.12 50.44C232.698 48.0217 233.129 45.5705 233.41 43.1L236.56 14.1C236.683 12.305 236.91 10.5187 237.24 8.75C237.479 7.86401 238.016 7.08725 238.76 6.55C239.716 5.83992 240.891 5.48621 242.08 5.55C242.63 5.55432 243.173 5.67199 243.675 5.89566C244.178 6.11934 244.629 6.44422 245 6.85C245.384 7.19388 245.694 7.61245 245.91 8.08013C246.127 8.54781 246.246 9.05477 246.26 9.57C246.172 11.1704 245.961 12.7617 245.63 14.33C245.03 17.59 244.18 23.8567 243.08 33.13C241.98 42.4033 241.433 47.31 241.44 47.85C241.44 48.53 241.55 48.85 241.79 48.85C244.238 48.6635 246.675 48.3497 249.09 47.91C250.967 47.6075 252.86 47.4106 254.76 47.32C258.606 47.2389 262.439 46.8409 266.22 46.13C266.723 45.9914 267.239 45.9075 267.76 45.88C268.312 45.8526 268.863 45.9397 269.379 46.1359C269.896 46.3321 270.366 46.6331 270.76 47.02C271.11 47.3783 271.385 47.8022 271.57 48.2672C271.756 48.7323 271.847 49.2294 271.84 49.73C271.864 50.4594 271.709 51.1837 271.389 51.8393C271.068 52.4948 270.591 53.0617 270 53.49C268.77 54.4393 267.253 54.9402 265.7 54.91V54.91Z" fill="#D05168"/>
<path d="M279.06 33.43C279.8 29.19 280.17 26.7667 280.17 26.16C280.116 24.636 280.513 23.13 281.31 21.83C281.634 21.2837 282.097 20.8335 282.652 20.5259C283.208 20.2182 283.835 20.0643 284.47 20.08C285.801 19.9972 287.117 20.3946 288.18 21.2C288.578 21.492 288.905 21.8705 289.135 22.307C289.365 22.7435 289.494 23.2267 289.51 23.72C289.295 25.6829 288.859 27.6151 288.21 29.48L288 30.25C286.903 33.8398 286.133 37.5215 285.7 41.25C285.44 44.1 285.31 46.39 285.31 48.14C285.373 50.0594 285.621 51.9682 286.05 53.84C286.112 54.1867 286.145 54.5379 286.15 54.89C286.15 55.42 285.64 56.14 284.63 57.05C283.756 57.9101 282.586 58.4037 281.36 58.43C278.287 58.43 276.75 56.0967 276.75 51.43C276.851 46.5644 277.414 41.7194 278.43 36.96C278.66 35.68 278.87 34.5 279.06 33.43ZM295.94 4.64002C295.924 5.48946 295.714 6.32397 295.325 7.07967C294.937 7.83537 294.381 8.49224 293.7 9.00002C292.654 10.0429 291.287 10.7019 289.82 10.87C289.111 10.8586 288.413 10.6967 287.772 10.395C287.13 10.0933 286.561 9.65871 286.1 9.12002C285.129 8.20455 284.546 6.95213 284.47 5.62002C284.441 4.86703 284.57 4.11631 284.847 3.41561C285.124 2.71491 285.544 2.07958 286.08 1.55002C286.71 1.00063 287.443 0.580949 288.236 0.314982C289.028 0.0490142 289.866 -0.0580162 290.7 1.54646e-05C291.395 -0.0228483 292.087 0.0917045 292.738 0.3371C293.388 0.582496 293.983 0.953905 294.49 1.43002C294.941 1.83557 295.302 2.33029 295.552 2.88284C295.801 3.43539 295.934 4.03374 295.94 4.64002V4.64002Z" fill="#D05168"/>
<path d="M300.59 55.68C299.493 55.7677 298.4 55.4784 297.49 54.86C296.823 54.3134 296.49 52.8734 296.49 50.54C296.472 49.5372 296.529 48.5344 296.66 47.54C296.78 46.86 297.34 46.31 298.36 45.92C299.776 45.4589 301.263 45.2557 302.75 45.32C303.92 45.238 305.079 45.5945 306 46.32C306.333 46.5806 306.604 46.9107 306.796 47.2873C306.988 47.6638 307.095 48.0777 307.11 48.5C307.169 49.5359 306.959 50.5696 306.5 51.5C305.779 52.5183 304.882 53.399 303.85 54.1C302.946 54.941 301.81 55.4914 300.59 55.68V55.68Z" fill="#D05168"/>
<path d="M323.69 39.25L324.29 38.13C326.666 33.1318 329.729 28.4902 333.39 24.34C336.643 20.8067 339.82 19.0434 342.92 19.05C345.034 18.9592 347.107 19.6538 348.74 21C349.44 21.5576 350.006 22.2645 350.397 23.0691C350.788 23.8737 350.994 24.7555 351 25.65C351.031 26.6678 350.763 27.6724 350.23 28.54C350.015 28.9125 349.704 29.2205 349.329 29.4316C348.955 29.6427 348.53 29.7492 348.1 29.74C347.355 29.7274 346.621 29.563 345.942 29.257C345.262 28.9509 344.653 28.5096 344.15 27.96C343.632 27.3617 342.927 26.9563 342.15 26.81C340.403 26.81 337.48 29.5234 333.38 34.95C329.322 40.2843 326.773 46.612 326 53.27C325.931 54.7973 325.321 56.2504 324.28 57.37C323.272 58.2029 321.986 58.6244 320.68 58.55C319.073 58.55 317.933 57.6334 317.26 55.8C316.587 53.9667 316.253 50.9667 316.26 46.8C316.26 45.1 316.307 42.8034 316.4 39.91C316.5 37.18 316.76 33.85 317.21 29.91C317.32 28.91 317.4 28.08 317.45 27.5C317.546 25.9147 317.787 24.3414 318.17 22.8C318.524 21.8416 319.162 21.0145 320 20.43C320.929 19.7068 322.073 19.316 323.25 19.32C323.777 19.2879 324.305 19.3705 324.797 19.5621C325.289 19.7537 325.734 20.0499 326.1 20.43C326.731 21.0629 327.089 21.9167 327.1 22.81C326.838 25.1324 326.311 27.4172 325.53 29.62C325.11 31.0177 324.796 32.4451 324.59 33.89L323.69 39.25Z" fill="#D05168"/>
<path d="M384.31 38.87C382.787 44.2525 379.688 49.0555 375.41 52.66C371.037 56.4 366.673 58.27 362.32 58.27C360.705 58.3088 359.102 57.9879 357.627 57.3307C356.152 56.6735 354.841 55.6963 353.79 54.47C351.534 51.9029 350.333 48.5765 350.43 45.16C350.43 39.16 352.483 33.24 356.59 27.4C360.697 21.56 365.67 18.6467 371.51 18.66C373.355 18.6027 375.188 18.9717 376.867 19.7384C378.546 20.505 380.025 21.6485 381.19 23.08C383.662 26.0283 384.98 29.7734 384.9 33.62C384.9 35.3734 384.703 37.1212 384.31 38.83V38.87ZM366.13 27.87C364.113 29.855 362.487 32.2027 361.34 34.79C359.839 37.7309 359.039 40.9787 359 44.28C358.935 45.9413 359.3 47.5913 360.06 49.07C360.304 49.6193 360.698 50.0883 361.197 50.4228C361.696 50.7573 362.279 50.9436 362.88 50.96C365.767 50.96 368.767 49.2467 371.88 45.82C374.868 42.7237 376.545 38.5929 376.56 34.29C376.643 32.2074 376.114 30.146 375.04 28.36C374.601 27.6313 373.976 27.0325 373.229 26.6249C372.482 26.2172 371.64 26.0154 370.79 26.04C369.073 26.0368 367.416 26.6711 366.14 27.82L366.13 27.87Z" fill="#D05168"/>
</g>
<defs>
<clipPath id="clip0">
<rect width="384.9" height="66.43" fill="white"/>
</clipPath>
</defs>
</svg>
