<svg width="33" height="17" viewBox="0 0 33 17" fill="none" xmlns="http://www.w3.org/2000/svg">
<path d="M32.9628 11.6743L32.1292 8.00622C31.9556 7.26556 31.3303 6.70125 30.6009 6.63071L24.9045 6.10166L20.6669 0.529046C20.4238 0.211618 20.0417 0 19.6249 0H7.36367C6.91212 0 6.49531 0.246888 6.25217 0.634855L2.84821 6.1722L2.08406 6.63071C0.798889 7.44191 0 8.88797 0 10.4398V12.3797C0 12.9793 0.48628 13.5083 1.1115 13.5083H3.23029C3.40396 15.4481 5.00174 17 6.94686 17C8.92671 17 10.5245 15.4481 10.6634 13.5083H22.3342C22.5078 15.4481 24.1056 17 26.0507 17C28.0306 17 29.6284 15.4481 29.7673 13.5083H31.5387C32.4766 13.473 33.1712 12.6266 32.9628 11.6743ZM6.94686 14.9896C5.9743 14.9896 5.14068 14.1784 5.14068 13.1556C5.14068 12.1681 5.93956 11.3216 6.94686 11.3216C7.95415 11.3216 8.75304 12.1328 8.75304 13.1556C8.71831 14.1784 7.91942 14.9896 6.94686 14.9896ZM11.8791 5.8195H6.1827L8.12782 2.6805H11.8791V5.8195ZM14.4842 5.8195V2.6805H18.9649L21.3616 5.8195H14.4842ZM26.0507 14.9896C25.0782 14.9896 24.2445 14.1784 24.2445 13.1556C24.2445 12.1681 25.0434 11.3216 26.0507 11.3216C27.0233 11.3216 27.8569 12.1328 27.8569 13.1556C27.8569 14.1784 27.058 14.9896 26.0507 14.9896Z" fill="#D05168"/>
</svg>
