<svg width="33" height="19" viewBox="0 0 33 19" fill="none" xmlns="http://www.w3.org/2000/svg">
<path d="M32.787 10.9028C32.7523 10.1215 32.1618 9.48224 31.3977 9.41121L28.2371 9.05607L25.0765 3.90654C24.8681 3.5514 24.4861 3.33832 24.0693 3.33832H20.0751V1.02991C20.0751 0.461683 19.6236 0 19.0679 0H1.00723C0.451516 0 0 0.461683 0 1.02991V14.2411C0 15.0935 0.659908 15.7682 1.49348 15.7682H2.46597C2.6049 17.5794 4.06365 19 5.86971 19C7.67578 19 9.13452 17.5794 9.27345 15.7682H23.6872C23.8262 17.5794 25.2849 19 27.091 19C28.897 19 30.3558 17.5794 30.4947 15.7682H31.4325C32.3355 15.7682 33.0649 14.9869 32.9954 14.0636L32.787 10.9028ZM5.86971 17.1533C4.96668 17.1533 4.23731 16.4075 4.23731 15.4841C4.23731 14.5607 4.96668 13.815 5.86971 13.815C6.77274 13.815 7.50212 14.5607 7.50212 15.4841C7.50212 16.4075 6.77274 17.1533 5.86971 17.1533ZM20.1098 5.75327H23.4094L25.1807 8.66542H25.1112C25.0765 8.66542 25.0071 8.66542 24.9376 8.66542H20.0751V5.75327H20.1098ZM27.1257 17.1533C26.2227 17.1533 25.4933 16.4075 25.4933 15.4841C25.4933 14.5607 26.2227 13.815 27.1257 13.815C28.0287 13.815 28.7581 14.5607 28.7581 15.4841C28.7581 16.4075 28.0287 17.1533 27.1257 17.1533Z" />
</svg>
