<svg width="97" height="21" viewBox="0 0 97 21" fill="none" xmlns="http://www.w3.org/2000/svg">
<path d="M10.83 18.388C10.7953 17.452 10.7607 16.4727 10.726 15.45C10.7087 14.41 10.7 13.214 10.7 11.862C10.1453 11.8793 9.556 11.8967 8.932 11.914C8.308 11.914 7.66667 11.914 7.008 11.914C6.228 11.914 5.51733 11.914 4.876 11.914C4.23467 11.914 3.66267 11.9053 3.16 11.888C3.14267 12.98 3.12533 14.0373 3.108 15.06C3.09067 16.0653 3.056 17.166 3.004 18.362C2.98667 18.778 2.94333 19.0987 2.874 19.324C2.822 19.5493 2.744 19.7227 2.64 19.844C2.536 19.9653 2.41467 20.0347 2.276 20.052C2.15467 20.0867 2.00733 20.104 1.834 20.104C1.522 20.104 1.262 20 1.054 19.792C0.846 19.5667 0.724667 19.0987 0.69 18.388C0.655333 17.764 0.629333 17.114 0.612 16.438C0.612 15.762 0.603333 15.034 0.586 14.254C0.568667 13.474 0.56 12.6333 0.56 11.732C0.56 10.8133 0.56 9.79067 0.56 8.664C0.56 7.43333 0.568667 6.38467 0.586 5.518C0.603333 4.634 0.646667 3.91467 0.716 3.36C0.802667 2.80533 0.932667 2.398 1.106 2.138C1.27933 1.878 1.522 1.748 1.834 1.748C2.12867 1.748 2.38867 1.84333 2.614 2.034C2.83933 2.22467 2.96933 2.66667 3.004 3.36C3.03867 3.94933 3.06467 4.48667 3.082 4.972C3.09933 5.44 3.11667 5.908 3.134 6.376C3.15133 6.82667 3.16 7.29467 3.16 7.78C3.16 8.26533 3.16 8.80267 3.16 9.392C4.46 9.34 5.734 9.314 6.982 9.314C7.58867 9.314 8.19533 9.32267 8.802 9.34C9.426 9.35733 10.0587 9.38333 10.7 9.418V8.664C10.7 7.43333 10.7087 6.38467 10.726 5.518C10.7433 4.634 10.7867 3.91467 10.856 3.36C10.9427 2.80533 11.0727 2.398 11.246 2.138C11.4193 1.878 11.662 1.748 11.974 1.748C12.2687 1.748 12.5287 1.84333 12.754 2.034C12.9793 2.22467 13.1093 2.66667 13.144 3.36C13.1787 3.984 13.2047 4.53867 13.222 5.024C13.2393 5.50933 13.2567 5.99467 13.274 6.48C13.2913 6.948 13.3 7.442 13.3 7.962C13.3 8.46467 13.3 9.03667 13.3 9.678C13.3 10.458 13.3 11.2033 13.3 11.914C13.3 12.6247 13.2913 13.3267 13.274 14.02C13.2567 14.7133 13.2393 15.4153 13.222 16.126C13.2047 16.8367 13.1787 17.582 13.144 18.362C13.1267 18.778 13.0833 19.0987 13.014 19.324C12.962 19.5493 12.884 19.7227 12.78 19.844C12.676 19.9653 12.5547 20.0347 12.416 20.052C12.2947 20.0867 12.1473 20.104 11.974 20.104C11.662 20.104 11.402 20 11.194 19.792C10.986 19.5667 10.8647 19.0987 10.83 18.388ZM18.7431 8.222C18.7778 8.67267 18.7865 9.21867 18.7691 9.86C18.7691 10.5013 18.7778 11.1773 18.7951 11.888C18.8298 12.5813 18.8905 13.2833 18.9771 13.994C19.0638 14.6873 19.2111 15.3113 19.4191 15.866C19.6445 16.4207 19.9478 16.8713 20.3291 17.218C20.7278 17.5647 21.2391 17.738 21.8631 17.738C22.4871 17.738 22.9898 17.5647 23.3711 17.218C23.7698 16.8713 24.0731 16.4207 24.2811 15.866C24.5065 15.3113 24.6625 14.6873 24.7491 13.994C24.8358 13.2833 24.8878 12.5813 24.9051 11.888C24.9398 11.1773 24.9485 10.5013 24.9311 9.86C24.9311 9.21867 24.9485 8.67267 24.9831 8.222C25.0525 7.14733 25.4945 6.61 26.3091 6.61C26.6211 6.61 26.8638 6.69667 27.0371 6.87C27.2105 7.04333 27.3318 7.286 27.4011 7.598C27.4878 7.91 27.5398 8.28267 27.5571 8.716C27.5745 9.14933 27.5831 9.63467 27.5831 10.172C27.5831 11.2813 27.5225 12.434 27.4011 13.63C27.2971 14.8087 27.0458 15.892 26.6471 16.88C26.2658 17.868 25.6938 18.6827 24.9311 19.324C24.1685 19.9653 23.1458 20.286 21.8631 20.286C20.5805 20.286 19.5578 19.9653 18.7951 19.324C18.0325 18.6827 17.4518 17.868 17.0531 16.88C16.6718 15.892 16.4205 14.8087 16.2991 13.63C16.1951 12.434 16.1431 11.2813 16.1431 10.172C16.1431 9.63467 16.1518 9.14933 16.1691 8.716C16.1865 8.28267 16.2298 7.91 16.2991 7.598C16.3858 7.286 16.5158 7.04333 16.6891 6.87C16.8625 6.69667 17.1051 6.61 17.4171 6.61C18.2318 6.61 18.6738 7.14733 18.7431 8.222ZM48.0963 19.22C47.9923 18.9253 47.923 18.596 47.8883 18.232C47.871 17.868 47.8623 17.4173 47.8623 16.88C47.8623 16.4987 47.8623 16.204 47.8623 15.996C47.8797 15.7707 47.8883 15.58 47.8883 15.424C47.8883 15.2507 47.8883 15.086 47.8883 14.93C47.9057 14.7567 47.9143 14.5227 47.9143 14.228C47.9143 13.6213 47.897 13.0147 47.8623 12.408C47.845 11.784 47.7583 11.2293 47.6023 10.744C47.4463 10.2413 47.2037 9.834 46.8743 9.522C46.545 9.21 46.0683 9.054 45.4443 9.054C44.387 9.054 43.5637 9.55667 42.9743 10.562C42.385 11.5673 42.0297 13.1707 41.9083 15.372C41.8737 16.0653 41.8563 16.698 41.8563 17.27C41.8563 17.842 41.8217 18.336 41.7523 18.752C41.683 19.1507 41.553 19.4627 41.3623 19.688C41.189 19.9133 40.8943 20.026 40.4783 20.026C40.097 20.026 39.8197 19.9307 39.6463 19.74C39.473 19.532 39.343 19.2287 39.2563 18.83C39.187 18.4313 39.1437 17.946 39.1263 17.374C39.1263 16.802 39.1003 16.1347 39.0483 15.372C38.9963 14.54 38.9097 13.7427 38.7883 12.98C38.6843 12.2173 38.5023 11.55 38.2423 10.978C37.9997 10.3887 37.6617 9.92067 37.2283 9.574C36.8123 9.22733 36.275 9.054 35.6163 9.054C34.9923 9.054 34.507 9.21 34.1603 9.522C33.831 9.81667 33.5883 10.2153 33.4323 10.718C33.2763 11.2033 33.181 11.758 33.1463 12.382C33.129 12.9887 33.1203 13.604 33.1203 14.228C33.1203 14.54 33.1203 14.774 33.1203 14.93C33.1377 15.0687 33.1463 15.1987 33.1463 15.32C33.1463 15.4413 33.1463 15.5973 33.1463 15.788C33.1637 15.9787 33.1723 16.2733 33.1723 16.672C33.1723 17.244 33.155 17.738 33.1203 18.154C33.103 18.57 33.0423 18.9253 32.9383 19.22C32.817 19.5667 32.6523 19.7833 32.4443 19.87C32.2363 19.9393 32.0457 19.974 31.8723 19.974C31.335 19.974 30.9883 19.7833 30.8323 19.402C30.6763 19.0207 30.5897 18.466 30.5723 17.738C30.5723 17.3393 30.5637 16.8973 30.5463 16.412C30.5463 15.9093 30.5463 15.3027 30.5463 14.592C30.5463 14.2453 30.5463 13.942 30.5463 13.682C30.5463 13.422 30.5463 13.1707 30.5463 12.928C30.5637 12.6853 30.5723 12.4427 30.5723 12.2C30.5897 11.94 30.607 11.6453 30.6243 11.316C30.6763 10.2587 30.867 9.418 31.1963 8.794C31.5257 8.15267 31.9157 7.66733 32.3663 7.338C32.817 7.00867 33.3023 6.80067 33.8223 6.714C34.3423 6.61 34.819 6.558 35.2523 6.558C36.1883 6.558 36.977 6.69667 37.6183 6.974C38.2597 7.25133 38.7797 7.61533 39.1783 8.066C39.5943 8.51667 39.8977 9.028 40.0883 9.6C40.2963 10.172 40.435 10.7527 40.5043 11.342C40.5737 10.77 40.7123 10.2067 40.9203 9.652C41.1457 9.08 41.4663 8.57733 41.8823 8.144C42.3157 7.69333 42.8703 7.32933 43.5463 7.052C44.2223 6.77467 45.0543 6.636 46.0423 6.636C46.5103 6.636 46.987 6.688 47.4723 6.792C47.975 6.87867 48.4343 7.08667 48.8503 7.416C49.2663 7.74533 49.613 8.222 49.8903 8.846C50.185 9.45267 50.3583 10.276 50.4103 11.316C50.4277 11.6453 50.4363 11.94 50.4363 12.2C50.4537 12.4427 50.4623 12.6853 50.4623 12.928C50.4797 13.1707 50.4883 13.422 50.4883 13.682C50.4883 13.942 50.4883 14.2453 50.4883 14.592C50.4883 15.3027 50.4797 15.9093 50.4623 16.412C50.4623 16.8973 50.4623 17.3393 50.4623 17.738C50.4623 18.0673 50.445 18.3707 50.4103 18.648C50.393 18.9253 50.341 19.1593 50.2543 19.35C50.1677 19.5407 50.0377 19.6967 49.8643 19.818C49.7083 19.922 49.4743 19.974 49.1623 19.974C48.8677 19.974 48.6423 19.922 48.4863 19.818C48.3303 19.6967 48.2003 19.4973 48.0963 19.22ZM56.3855 2.996C56.3855 4.036 56.3508 5.128 56.2815 6.272C56.2295 7.39867 56.1601 8.49933 56.0735 9.574C56.2988 9.106 56.5935 8.70733 56.9575 8.378C57.3215 8.03133 57.7201 7.754 58.1535 7.546C58.6041 7.338 59.0721 7.182 59.5575 7.078C60.0428 6.974 60.5108 6.922 60.9615 6.922C61.7415 6.922 62.4695 7.06933 63.1455 7.364C63.8388 7.64133 64.4368 8.05733 64.9395 8.612C65.4595 9.14933 65.8581 9.82533 66.1355 10.64C66.4301 11.4373 66.5775 12.356 66.5775 13.396C66.5775 14.4013 66.4301 15.32 66.1355 16.152C65.8408 16.984 65.3988 17.7033 64.8095 18.31C64.2375 18.8993 63.5181 19.3587 62.6515 19.688C61.8021 20.0173 60.8228 20.182 59.7135 20.182C58.2055 20.182 57.0181 19.8787 56.1515 19.272C55.3021 18.6653 54.6695 17.8593 54.2535 16.854C53.8375 15.8313 53.5775 14.6613 53.4735 13.344C53.3868 12.0267 53.3435 10.6487 53.3435 9.21C53.3435 7.754 53.3695 6.43667 53.4215 5.258C53.4735 4.07933 53.5515 3.126 53.6555 2.398C53.7595 1.73933 53.9328 1.27133 54.1755 0.994C54.4181 0.716666 54.7388 0.577999 55.1375 0.577999C55.4321 0.577999 55.6661 0.647332 55.8395 0.785999C56.0128 0.907332 56.1341 1.08067 56.2035 1.306C56.2901 1.53133 56.3421 1.79133 56.3595 2.086C56.3768 2.36333 56.3855 2.66667 56.3855 2.996ZM60.2335 9.496C59.7308 9.496 59.2455 9.58267 58.7775 9.756C58.3268 9.912 57.9195 10.1633 57.5555 10.51C57.2088 10.8567 56.9315 11.2987 56.7235 11.836C56.5155 12.356 56.4115 12.9887 56.4115 13.734C56.4115 15.0513 56.7321 16.0567 57.3735 16.75C58.0321 17.426 58.9075 17.764 59.9995 17.764C60.4501 17.764 60.9095 17.7033 61.3775 17.582C61.8455 17.4433 62.2701 17.218 62.6515 16.906C63.0328 16.5767 63.3448 16.1433 63.5875 15.606C63.8301 15.0687 63.9515 14.4013 63.9515 13.604C63.9515 12.8933 63.8475 12.278 63.6395 11.758C63.4488 11.238 63.1801 10.8133 62.8335 10.484C62.4868 10.1373 62.0881 9.886 61.6375 9.73C61.1868 9.574 60.7188 9.496 60.2335 9.496ZM69.0428 18.492C69.0254 17.868 69.0081 17.14 68.9908 16.308C68.9734 15.476 68.9561 14.5747 68.9388 13.604C68.9388 12.6333 68.9301 11.6107 68.9128 10.536C68.9128 9.46133 68.9128 8.36067 68.9128 7.234C68.9128 6.00333 68.9214 4.946 68.9388 4.062C68.9561 3.178 68.9994 2.45 69.0688 1.878C69.1554 1.306 69.2854 0.889999 69.4588 0.629998C69.6321 0.352665 69.8748 0.213999 70.1868 0.213999C70.4814 0.213999 70.7414 0.309332 70.9668 0.499998C71.1921 0.690666 71.3221 1.13267 71.3568 1.826C71.4261 3.074 71.4694 4.374 71.4868 5.726C71.5041 7.06067 71.5128 8.378 71.5128 9.678C71.5128 10.458 71.5128 11.212 71.5128 11.94C71.5128 12.6507 71.5041 13.3613 71.4868 14.072C71.4694 14.7653 71.4521 15.476 71.4348 16.204C71.4174 16.932 71.3914 17.686 71.3568 18.466C71.3394 18.882 71.2961 19.2027 71.2268 19.428C71.1748 19.6533 71.0968 19.8267 70.9928 19.948C70.8888 20.0693 70.7674 20.1387 70.6288 20.156C70.5074 20.1907 70.3601 20.208 70.1868 20.208C69.8748 20.208 69.6148 20.104 69.4068 19.896C69.1988 19.6707 69.0774 19.2027 69.0428 18.492ZM80.7072 15.216C80.1006 15.216 79.4592 15.1727 78.7832 15.086C78.1246 14.982 77.4052 14.774 76.6252 14.462C76.7812 15.5193 77.2146 16.3167 77.9252 16.854C78.6532 17.3913 79.6932 17.66 81.0452 17.66C81.5306 17.66 81.9639 17.634 82.3452 17.582C82.7439 17.5127 83.0906 17.4433 83.3852 17.374C83.6799 17.2873 83.9399 17.218 84.1652 17.166C84.3906 17.0967 84.5986 17.062 84.7892 17.062C85.0319 17.062 85.2659 17.14 85.4912 17.296C85.7166 17.4347 85.8292 17.6773 85.8292 18.024C85.8292 18.4573 85.6472 18.8127 85.2832 19.09C84.9366 19.3673 84.5032 19.5927 83.9832 19.766C83.4806 19.922 82.9432 20.026 82.3712 20.078C81.7992 20.1473 81.2966 20.182 80.8632 20.182C79.8406 20.182 78.8959 20.0433 78.0292 19.766C77.1799 19.4887 76.4432 19.0727 75.8192 18.518C75.1952 17.946 74.7099 17.244 74.3632 16.412C74.0166 15.58 73.8432 14.6093 73.8432 13.5C73.8432 12.4253 74.0079 11.472 74.3372 10.64C74.6839 9.808 75.1519 9.106 75.7412 8.534C76.3306 7.962 77.0239 7.52867 77.8212 7.234C78.6359 6.93933 79.5112 6.792 80.4472 6.792C81.1752 6.792 81.8772 6.88733 82.5532 7.078C83.2466 7.26867 83.8532 7.55467 84.3732 7.936C84.9106 8.31733 85.3352 8.80267 85.6472 9.392C85.9766 9.964 86.1412 10.64 86.1412 11.42C86.1412 12.1133 86.0112 12.7027 85.7512 13.188C85.4912 13.6733 85.1186 14.0633 84.6332 14.358C84.1652 14.6527 83.5932 14.8693 82.9172 15.008C82.2586 15.1467 81.5219 15.216 80.7072 15.216ZM80.5252 9.184C80.0572 9.184 79.6066 9.24467 79.1732 9.366C78.7399 9.47 78.3412 9.652 77.9772 9.912C77.6306 10.1547 77.3359 10.484 77.0932 10.9C76.8506 11.2987 76.6859 11.8013 76.5992 12.408C77.2579 12.7027 77.8992 12.9107 78.5232 13.032C79.1472 13.136 79.8059 13.188 80.4992 13.188C81.5219 13.188 82.2759 13.0667 82.7612 12.824C83.2639 12.564 83.5152 12.1047 83.5152 11.446C83.5152 10.8393 83.2812 10.3107 82.8132 9.86C82.3626 9.40933 81.5999 9.184 80.5252 9.184ZM88.7453 18.414C88.676 17.8073 88.6326 17.0707 88.6153 16.204C88.598 15.3373 88.5893 14.2887 88.5893 13.058C88.5893 11.8447 88.5893 10.8653 88.5893 10.12C88.6066 9.37467 88.6586 8.716 88.7453 8.144C88.832 7.43333 88.962 6.974 89.1353 6.766C89.326 6.558 89.5686 6.454 89.8633 6.454C90.0713 6.454 90.2533 6.47133 90.4093 6.506C90.5826 6.54067 90.73 6.61867 90.8513 6.74C90.99 6.844 91.094 7 91.1633 7.208C91.2326 7.416 91.2673 7.702 91.2673 8.066C91.2673 8.13533 91.276 8.20467 91.2933 8.274C91.2933 8.34333 91.2933 8.42133 91.2933 8.508C91.3106 8.57733 91.3193 8.664 91.3193 8.768C91.7873 8.17867 92.316 7.676 92.9053 7.26C93.512 6.844 94.1966 6.636 94.9593 6.636C95.982 6.636 96.4933 7.06067 96.4933 7.91C96.4933 8.222 96.424 8.482 96.2853 8.69C96.164 8.898 95.982 9.07133 95.7393 9.21C95.514 9.33133 95.2453 9.42667 94.9333 9.496C94.6386 9.56533 94.3093 9.63467 93.9453 9.704C93.3906 9.808 92.8706 10.0073 92.3853 10.302C91.9 10.5793 91.5706 10.9347 91.3973 11.368C91.3973 11.6973 91.3973 11.94 91.3973 12.096C91.4146 12.252 91.4233 12.382 91.4233 12.486C91.4406 12.59 91.4493 12.7027 91.4493 12.824C91.4493 12.9453 91.4493 13.136 91.4493 13.396C91.4493 14.28 91.432 15.112 91.3973 15.892C91.3626 16.6547 91.328 17.4867 91.2933 18.388C91.276 18.804 91.224 19.1247 91.1373 19.35C91.068 19.5753 90.9726 19.7487 90.8513 19.87C90.7473 19.9913 90.626 20.0607 90.4873 20.078C90.3486 20.1127 90.21 20.13 90.0713 20.13C89.586 20.13 89.2566 20.026 89.0833 19.818C88.9273 19.5927 88.8146 19.1247 88.7453 18.414Z" fill="#D05168"/>
</svg>
