<svg width="12" height="11" viewBox="0 0 12 11" fill="none" xmlns="http://www.w3.org/2000/svg">
<path d="M5.8512 6.7898C5.8512 5.25593 7.0116 3.97549 8.50545 3.80209C8.67885 3.77542 8.86558 3.74874 9.03897 3.74874C9.62584 3.77542 10.146 3.93547 10.5995 4.21557C10.8396 3.56201 10.8396 2.88178 10.4528 2.20154C10.026 1.49463 9.21237 1.05447 8.29205 1.05447C7.45176 1.05447 6.67815 1.42794 6.25134 2.06816L5.8512 2.62835L5.47774 2.06816C5.05092 1.42794 4.27732 1.05447 3.43703 1.05447C2.51671 1.05447 1.70309 1.49463 1.27628 2.20154C0.342622 3.76208 1.55638 5.29595 3.02355 6.72311C3.62376 7.32332 5.14429 8.64378 5.86454 9.24398C6.05127 9.09727 6.27801 8.88386 6.54477 8.65711C6.10462 8.16361 5.8512 7.51005 5.8512 6.7898ZM7.25169 9.32401C6.70483 9.79084 6.25134 10.1776 6.15797 10.2577L5.8512 10.5244L5.5711 10.2577C5.11761 9.88421 3.09024 8.15027 2.35665 7.44336C1.35631 6.46969 -0.991174 4.16222 0.462664 1.74805C1.06287 0.734364 2.16992 0.134155 3.42369 0.134155C4.35735 0.134155 5.25099 0.49428 5.86454 1.09449C6.47808 0.467604 7.37173 0.134155 8.30539 0.134155C9.55915 0.134155 10.6529 0.734364 11.2798 1.74805C11.9333 2.8551 11.8133 3.94881 11.3598 4.88247C11.7733 5.38931 12 6.02953 12 6.72311C12 7.73679 11.4798 8.64378 10.7062 9.17729L10.6929 9.19063C10.186 9.57743 9.55915 9.80418 8.87892 9.80418C8.26537 9.80418 7.71851 9.63078 7.25169 9.32401ZM8.91893 9.0039C10.1727 9.0039 11.1864 7.99021 11.1864 6.73645C11.1864 5.49602 10.186 4.48233 8.93227 4.46899H8.91893C7.6785 4.46899 6.65148 5.48268 6.65148 6.73645C6.65148 7.97688 7.65182 8.99056 8.89226 9.0039C8.90559 9.0039 8.91893 9.0039 8.91893 9.0039Z" fill="#D05168"/>
<path d="M8.85219 6.4162V6.21614V6.14945V5.96271C8.73215 5.98939 8.65212 6.05608 8.65212 6.2028C8.65212 6.33618 8.74549 6.40287 8.85219 6.4162ZM9.26567 7.33652C9.26567 7.28317 9.25233 7.24316 9.23899 7.21648C9.21231 7.14979 9.14562 7.10978 9.0656 7.0831V7.57661C9.14562 7.57661 9.21231 7.52326 9.23899 7.44323C9.26567 7.40321 9.26567 7.3632 9.26567 7.33652ZM8.85219 5.48255V5.32249C8.85219 5.2558 8.8922 5.22913 8.94556 5.22913C9.02558 5.22913 9.03892 5.26914 9.03892 5.32249V5.48255C9.26567 5.48255 9.67914 5.56258 9.67914 5.85601C9.67914 5.98939 9.57244 6.10943 9.43906 6.10943C9.30568 6.10943 9.19898 5.97605 9.03892 5.97605V6.46956C9.43906 6.5896 9.85254 6.76299 9.85254 7.2565C9.85254 7.81669 9.39905 8.07011 9.03892 8.09679V8.25684C9.03892 8.3102 8.99891 8.35021 8.94556 8.35021C8.86553 8.35021 8.85219 8.3102 8.85219 8.25684V8.12346C8.61211 8.09679 8.03857 8.04344 8.03857 7.70999C8.03857 7.54993 8.15862 7.41655 8.29199 7.41655C8.41204 7.41655 8.58543 7.57661 8.85219 7.57661V7.01641C8.25198 6.84302 8.05191 6.61627 8.05191 6.29616C8.05191 5.82933 8.41204 5.52256 8.85219 5.48255Z" fill="#D05168"/>
<path d="M8.77218 6.16296V6.22948C8.77218 6.22948 8.77218 6.21618 8.77218 6.20287C8.75888 6.18957 8.75888 6.17627 8.77218 6.16296Z" fill="#D05168"/>
</svg>
