<svg width="10" height="15" viewBox="0 0 10 15" fill="none" xmlns="http://www.w3.org/2000/svg">
<path d="M8.0528 0.671875H6.77137H1.21968C0.547046 0.671875 0 1.15269 0 1.7438V13.3671C0 13.3674 0 13.3676 0 13.3679C0 13.4006 0.00417428 13.432 0.00904464 13.4633L0.0123497 13.4858C0.0123497 13.4861 0.0125238 13.4864 0.0126977 13.4866C0.0819265 14.0301 0.60062 14.4399 1.21968 14.4399H8.0528C8.72474 14.4399 9.27144 13.9587 9.27144 13.3671V1.7438C9.27144 1.15269 8.72491 0.671875 8.0528 0.671875ZM8.76649 13.3671C8.76649 13.7138 8.44626 13.9958 8.0528 13.9958H1.21968C0.85788 13.9958 0.5547 13.7554 0.514171 13.4369C0.514171 13.4367 0.514171 13.4367 0.514171 13.4366L0.513823 13.4336C0.512432 13.422 0.510692 13.4107 0.508953 13.3991C0.507388 13.3885 0.504953 13.3781 0.504953 13.3671V1.7438C0.504953 1.39776 0.825527 1.11612 1.21968 1.11612H6.77155H8.05298C8.44643 1.11612 8.76666 1.39776 8.76666 1.7438V13.3671H8.76649Z" fill="#D05168"/>
<path d="M5.16887 12.5784H4.10418C3.6448 12.5784 3.271 12.8686 3.271 13.225C3.271 13.5823 3.6448 13.8731 4.10418 13.8731H5.16887C5.5872 13.8731 5.93752 13.6312 5.99075 13.3081C5.99231 13.3014 5.99336 13.2944 5.99405 13.2873C5.9977 13.2673 6.00049 13.2465 6.00049 13.2252C6.00066 12.8686 5.62756 12.5784 5.16887 12.5784ZM5.4924 13.2356C5.49206 13.2374 5.49188 13.2393 5.49153 13.2411C5.47901 13.3315 5.35203 13.4291 5.16887 13.4291H4.10418C3.92623 13.4291 3.77595 13.3357 3.77595 13.2252C3.77595 13.1173 3.92937 13.0226 4.10418 13.0226H5.16887C5.34299 13.0226 5.49554 13.1173 5.49571 13.216C5.49449 13.2226 5.49327 13.229 5.4924 13.2356Z" fill="#D05168"/>
<path d="M8.14968 1.57837H6.30207H1.12225C0.982752 1.57837 0.86969 1.67781 0.86969 1.80049V4.44335V11.8025V12.0923C0.86969 12.2148 0.982752 12.3144 1.12225 12.3144H1.3155H8.14951C8.28901 12.3144 8.40207 12.215 8.40207 12.0923V1.97061V1.80034C8.40224 1.67781 8.28918 1.57837 8.14968 1.57837ZM7.89729 11.8701H1.37482V11.8025V4.4432V2.02247H6.30207H7.89712V11.8701H7.89729Z" fill="#D05168"/>
</svg>
