<svg width="9" height="13" viewBox="0 0 9 13" fill="none" xmlns="http://www.w3.org/2000/svg">
<path d="M4.49546 9.49875e-05C2.51376 -0.0130011 0.688589 1.32977 0.149945 3.36662C0.0283245 3.82652 -0.00199986 4.27886 0.000100085 4.7123C0.00755276 6.25052 0.818915 7.57946 1.73467 8.86958C2.65043 10.1597 3.68213 11.4294 4.23209 12.8188C4.25428 12.8725 4.29153 12.9183 4.33919 12.9506C4.38685 12.9828 4.44279 13 4.5 13C4.55721 13 4.61315 12.9828 4.66081 12.9506C4.70847 12.9183 4.74572 12.8725 4.76791 12.8188C5.31787 11.4294 6.34957 10.1597 7.26533 8.86958C8.18109 7.57946 8.99245 6.25052 8.9999 4.7123C9.002 4.27886 8.97168 3.82652 8.85006 3.36662C8.31141 1.32977 6.48624 -0.0130041 4.50454 9.49875e-05C4.5015 0.000115705 4.49851 6.83513e-05 4.49546 9.49875e-05ZM4.49546 0.592011C4.49849 0.592059 4.50151 0.592059 4.50454 0.592011C6.22907 0.576982 7.81654 1.74019 8.287 3.51922C8.39022 3.90955 8.42063 4.31075 8.41868 4.7123C8.41226 6.03728 7.69239 7.2558 6.79309 8.52276C6.00848 9.6281 5.1168 10.7651 4.5 12.0373C3.8832 10.7651 2.99152 9.6281 2.20691 8.52276C1.30761 7.2558 0.587738 6.03728 0.581318 4.7123C0.579373 4.31075 0.609778 3.90955 0.713001 3.51922C1.18346 1.74019 2.77093 0.576982 4.49546 0.592011ZM4.49092 2.64522C3.46455 2.64389 2.62336 3.49724 2.62466 4.5412C2.62597 5.58516 3.46909 6.43585 4.49546 6.43718C5.52183 6.43866 6.35848 5.58978 6.35717 4.54582C6.35587 3.50186 5.51729 2.64655 4.49092 2.64522ZM4.49092 3.23713C5.20298 3.23802 5.77505 3.82159 5.77596 4.54582C5.77686 5.27005 5.20298 5.84619 4.49092 5.84526C3.77886 5.84437 3.20678 5.26543 3.20588 4.5412C3.20498 3.81697 3.77886 3.23621 4.49092 3.23713Z" fill="#D05168"/>
</svg>
